<svg width="36" height="36" viewBox="0 0 36 36" fill="none" xmlns="http://www.w3.org/2000/svg">
<g filter="url(#filter0_d_1620_171)">
<path d="M18.0013 0.666626C10.6546 0.666626 4.66797 6.65329 4.66797 14C4.66797 21.3466 10.6546 27.3333 18.0013 27.3333C25.348 27.3333 31.3346 21.3466 31.3346 14C31.3346 6.65329 25.348 0.666626 18.0013 0.666626ZM24.3746 10.9333L16.8146 18.4933C16.628 18.68 16.3746 18.7866 16.108 18.7866C15.8413 18.7866 15.588 18.68 15.4013 18.4933L11.628 14.72C11.2413 14.3333 11.2413 13.6933 11.628 13.3066C12.0146 12.92 12.6546 12.92 13.0413 13.3066L16.108 16.3733L22.9613 9.51996C23.348 9.13329 23.988 9.13329 24.3746 9.51996C24.7613 9.90663 24.7613 10.5333 24.3746 10.9333Z" fill="#F31D1D"/>
</g>
<defs>
<filter id="filter0_d_1620_171" x="0.667969" y="0.666626" width="34.666" height="34.6666" filterUnits="userSpaceOnUse" color-interpolation-filters="sRGB">
<feFlood flood-opacity="0" result="BackgroundImageFix"/>
<feColorMatrix in="SourceAlpha" type="matrix" values="0 0 0 0 0 0 0 0 0 0 0 0 0 0 0 0 0 0 127 0" result="hardAlpha"/>
<feOffset dy="4"/>
<feGaussianBlur stdDeviation="2"/>
<feComposite in2="hardAlpha" operator="out"/>
<feColorMatrix type="matrix" values="0 0 0 0 0 0 0 0 0 0 0 0 0 0 0 0 0 0 0.25 0"/>
<feBlend mode="normal" in2="BackgroundImageFix" result="effect1_dropShadow_1620_171"/>
<feBlend mode="normal" in="SourceGraphic" in2="effect1_dropShadow_1620_171" result="shape"/>
</filter>
</defs>
</svg>
