<svg width="108" height="46" viewBox="0 0 108 46" fill="none" xmlns="http://www.w3.org/2000/svg">
<path d="M107.375 22.9999C107.375 22.666 107.309 22.3354 107.182 22.027C107.054 21.7185 106.867 21.4383 106.631 21.2022C106.395 20.9662 106.115 20.7789 105.806 20.6513C105.498 20.5236 105.167 20.458 104.833 20.4582L9.30211 20.4582L25.2968 4.46361C25.5395 4.22915 25.7332 3.94869 25.8664 3.63859C25.9996 3.3285 26.0697 2.99498 26.0726 2.6575C26.0756 2.32002 26.0112 1.98533 25.8834 1.67297C25.7556 1.36061 25.5669 1.07683 25.3283 0.838182C25.0896 0.599539 24.8058 0.410814 24.4935 0.283018C24.1811 0.155218 23.8464 0.0909098 23.509 0.0938434C23.1715 0.0967769 22.838 0.166895 22.5279 0.3001C22.2178 0.433306 21.9373 0.626936 21.7029 0.869692L1.36952 21.203C1.13348 21.439 0.946245 21.7191 0.818497 22.0274C0.69075 22.3358 0.624998 22.6662 0.624998 23C0.624998 23.3337 0.69075 23.6642 0.818497 23.9725C0.946245 24.2809 1.13348 24.561 1.36952 24.7969L21.7029 45.1303C22.1822 45.5933 22.8243 45.8494 23.4907 45.8437C24.1571 45.8379 24.7946 45.5706 25.2658 45.0993C25.7371 44.6281 26.0044 43.9906 26.0102 43.3242C26.0159 42.6577 25.7598 42.0157 25.2968 41.5364L9.30211 25.5415L104.833 25.5415C105.167 25.5417 105.498 25.4761 105.806 25.3485C106.115 25.2208 106.395 25.0336 106.631 24.7975C106.867 24.5615 107.054 24.2812 107.182 23.9728C107.309 23.6643 107.375 23.3337 107.375 22.9999Z" fill="white"/>
</svg>
